<svg width="13" height="13" viewBox="0 0 13 13" fill="none" xmlns="http://www.w3.org/2000/svg">
<g clip-path="url(#clip0_347_5)">
<path d="M12.7325 7.03516L6.29075 0.673424C6.03964 0.42455 5.69006 0.299299 5.33556 0.331832L2.74082 0.574199C2.50941 0.595346 2.41093 0.875125 2.57669 1.03616L2.58162 1.04104C2.91478 1.36311 3.30539 1.61524 3.67302 1.89502C3.92577 2.08859 4.23103 2.33096 4.22283 2.84822C4.21298 3.49237 3.73046 4.02915 3.10024 4.18043C2.7441 4.26664 2.34857 4.25526 2.08105 3.93644L1.47873 3.21421L1.0553 2.73111C0.899381 2.5538 0.605605 2.64327 0.579346 2.87588L0.292135 5.28654C0.249463 5.64277 0.372554 5.999 0.626941 6.25601L7.05391 12.7316C7.40841 13.0911 7.99268 13.0911 8.34882 12.7316L12.739 8.3023C13.0886 7.95095 13.0853 7.38326 12.7325 7.03516ZM7.67264 10.2477C7.48062 10.4397 7.16879 10.4397 6.97677 10.2477L3.53844 6.84159C3.34642 6.65128 3.34642 6.34222 3.53844 6.1519C3.7321 5.96159 4.04393 5.96159 4.23595 6.1519L7.67264 9.55806C7.86466 9.74837 7.86466 10.0574 7.67264 10.2477ZM9.70938 9.72072C9.52064 9.91429 9.20881 9.91917 9.01351 9.73211L4.02096 4.93193C3.82565 4.74487 3.82073 4.43581 4.01111 4.24224C4.19985 4.04867 4.51168 4.04379 4.70698 4.23248L9.69953 9.03103C9.89484 9.21809 9.89976 9.52715 9.70938 9.72072ZM10.8303 8.51051C10.6367 8.6992 10.3248 8.69757 10.1345 8.50563L5.19278 3.53141C5.00076 3.33946 5.00404 3.03041 5.1977 2.84172C5.39136 2.65303 5.70319 2.65466 5.89357 2.8466L10.8369 7.82082C11.0273 8.01276 11.024 8.32182 10.8303 8.51051Z" fill="black"/>
<path d="M3.23487 3.15896C3.42525 2.96702 3.42197 2.65796 3.22831 2.46927L0.837069 0.139942C0.643406 -0.0487471 0.331577 -0.0454939 0.141197 0.146448C-0.0491832 0.33839 -0.0459008 0.647449 0.147762 0.836138L2.539 3.16384C2.73266 3.35253 3.04449 3.34928 3.23487 3.15733V3.15896Z" fill="black"/>
</g>
<defs>
<clipPath id="clip0_347_5">
<rect width="13" height="13" fill="white"/>
</clipPath>
</defs>
</svg>
